<?xml version="1.0" standalone="no"?>
<!DOCTYPE svg PUBLIC "-//W3C//DTD SVG 20010904//EN"
 "http://www.w3.org/TR/2001/REC-SVG-20010904/DTD/svg10.dtd">
<svg version="1.0" xmlns="http://www.w3.org/2000/svg"
 width="300.000000pt" height="150.000000pt" viewBox="0 0 300.000000 150.000000"
 preserveAspectRatio="xMidYMid meet">

<g transform="translate(0.000000,150.000000) scale(0.100000,-0.100000)"
fill="#1f1a0e" stroke="none">
<path d="M605 1470 l-29 -30 27 -27 27 -28 30 31 30 30 -28 27 -28 27 -29 -30z"/>
<path d="M10 1325 c0 -2 9 -19 20 -37 18 -30 20 -51 20 -250 0 -212 -1 -217
-22 -232 -27 -20 -22 -25 19 -19 l33 5 2 204 3 203 125 -204 125 -203 57 -4
c32 -2 58 -2 58 0 0 2 -7 17 -16 33 -13 25 -15 67 -12 250 3 218 3 221 27 240
l23 19 -36 0 -36 0 -2 -221 -3 -221 -130 220 -130 221 -62 1 c-35 0 -63 -2
-63 -5z"/>
<path d="M558 1310 c21 -20 22 -27 22 -250 0 -217 -1 -231 -20 -250 -11 -11
-20 -21 -20 -22 0 -2 41 -3 90 -3 50 0 90 1 90 3 0 1 -9 11 -20 22 -19 19 -20
33 -20 249 l0 230 26 20 27 21 -99 0 -98 0 22 -20z"/>
<path d="M895 1312 c-94 -44 -146 -130 -153 -253 -8 -135 45 -245 159 -330
133 -101 346 -116 436 -33 22 20 24 24 8 19 -90 -29 -197 -20 -295 26 -154 72
-231 228 -200 409 21 123 85 181 185 165 39 -5 49 -13 89 -67 l46 -62 0 70 0
69 -118 3 c-97 2 -124 -1 -157 -16z"/>
<path d="M1658 1280 c21 -20 22 -29 22 -180 0 -151 -1 -160 -22 -180 l-22 -20
207 0 207 0 0 70 c0 39 -1 70 -3 70 -1 0 -23 -27 -47 -60 l-45 -60 -85 2 c-47
2 -84 6 -82 11 1 4 2 50 2 102 l0 95 58 0 c52 0 59 -3 84 -32 l27 -33 1 80 0
80 -25 -30 c-13 -16 -24 -33 -25 -37 0 -8 -113 -11 -121 -4 -2 2 -2 32 -1 65
l4 61 82 0 83 0 39 -50 c21 -27 42 -49 47 -50 4 0 7 27 7 60 l0 60 -207 0
-207 0 22 -20z"/>
<path d="M2608 1280 c21 -20 22 -29 22 -180 0 -151 -1 -160 -22 -180 l-22 -20
207 0 207 0 0 70 c0 39 -1 70 -3 70 -2 0 -23 -27 -47 -60 l-43 -60 -84 0 -83
0 0 105 0 105 58 0 c52 0 59 -3 84 -32 l27 -33 1 80 0 80 -25 -30 c-13 -16
-24 -33 -25 -37 0 -5 -27 -8 -60 -8 l-60 0 0 65 0 65 84 0 85 0 38 -50 c21
-27 41 -49 46 -50 4 0 7 27 7 60 l0 60 -207 0 -207 0 22 -20z"/>
<path d="M2134 1274 c9 -8 16 -26 16 -38 0 -30 -36 -76 -60 -76 -10 0 -22 -4
-25 -10 -4 -6 7 -10 24 -10 l31 0 0 -122 c0 -145 10 -188 51 -222 26 -22 40
-26 95 -26 l64 0 0 50 c0 28 -2 50 -5 50 -2 0 -14 -18 -25 -41 -12 -22 -26
-39 -33 -36 -28 9 -37 54 -37 200 l0 148 83 -3 82 -3 5 -145 c7 -194 23 -220
137 -220 l63 0 0 50 c0 28 -2 50 -5 50 -3 0 -12 -18 -21 -40 -11 -28 -22 -40
-33 -38 -28 6 -40 67 -40 211 l-1 137 53 2 c36 1 24 4 -38 7 l-90 6 37 22 c28
16 38 30 43 57 4 19 4 39 0 45 -3 6 -32 11 -63 11 -44 -1 -53 -3 -39 -11 29
-17 22 -73 -14 -103 -28 -24 -38 -26 -130 -26 -54 0 -99 2 -99 5 0 2 13 11 29
19 32 17 56 65 46 95 -5 18 -14 21 -61 21 -50 0 -54 -1 -40 -16z"/>
<path d="M1458 1240 c21 -20 22 -27 22 -255 0 -224 -1 -235 -20 -247 -11 -7
-20 -16 -20 -20 0 -5 90 -8 200 -8 l200 0 0 65 c0 36 -3 65 -7 65 -5 -1 -25
-23 -46 -50 l-38 -50 -80 0 -79 0 0 229 0 229 -26 31 c-23 27 -32 31 -77 31
l-51 0 22 -20z"/>
<path d="M1153 1154 c-71 -26 -133 -113 -133 -189 0 -38 21 -95 47 -125 43
-51 96 -73 169 -68 113 7 193 88 194 195 0 63 -13 99 -48 137 -57 61 -144 80
-229 50z m98 -47 c48 -32 89 -116 89 -184 0 -94 -34 -130 -104 -111 -70 18
-121 113 -114 214 6 101 54 131 129 81z"/>
<path d="M2767 822 c-15 -15 -27 -32 -27 -37 0 -13 52 -65 65 -65 14 0 65 52
65 66 0 13 -53 64 -66 64 -6 0 -22 -13 -37 -28z"/>
<path d="M2410 580 c0 -3 9 -18 20 -35 18 -27 20 -47 20 -204 0 -167 -1 -176
-22 -199 l-23 -24 30 4 30 3 5 173 5 173 106 -173 106 -173 48 -3 c43 -3 47
-1 39 15 -5 10 -10 106 -12 214 -2 167 0 198 13 209 22 18 18 28 -10 22 l-25
-4 -2 -186 -3 -185 -110 186 -109 185 -53 4 c-29 2 -53 1 -53 -2z"/>
<path d="M1310 564 c-19 -7 -45 -13 -57 -13 -20 -1 -23 -6 -23 -41 l0 -40 -90
0 -90 0 0 39 c0 37 -1 39 -39 45 -22 3 -48 9 -58 12 -15 6 -16 4 -5 -7 18 -19
16 -89 -3 -89 -8 0 -15 -4 -15 -10 0 -5 7 -10 15 -10 13 0 15 -24 15 -155 0
-136 -2 -155 -17 -164 -13 -8 4 -10 67 -11 79 0 83 1 62 16 -20 14 -22 23 -22
110 l0 94 90 0 90 0 0 -100 c0 -84 -3 -101 -17 -109 -13 -8 2 -10 60 -11 71 0
77 1 63 16 -13 13 -16 42 -16 164 0 146 0 149 23 153 l22 4 -22 8 c-19 6 -23
15 -23 46 0 26 6 41 17 48 28 15 11 18 -27 5z m-80 -159 l0 -45 -90 0 -90 0 0
45 0 45 90 0 90 0 0 -45z"/>
<path d="M435 540 c17 -19 18 -25 1 -142 -10 -68 -27 -144 -38 -170 -27 -63
-100 -130 -171 -157 -61 -22 -190 -30 -202 -11 -3 6 -12 10 -18 10 -23 -1 43
-49 81 -59 122 -35 294 30 365 138 35 53 52 114 72 254 14 93 22 123 38 138
21 19 20 19 -63 19 -83 0 -83 0 -65 -20z"/>
<path d="M1831 530 c-48 -12 -84 -42 -97 -81 -23 -67 24 -124 134 -167 96 -37
125 -78 82 -117 -27 -25 -114 -24 -149 2 -47 35 -68 79 -87 180 -10 54 -27
110 -39 127 -40 60 -105 60 -162 0 -26 -28 -33 -32 -33 -17 0 38 -29 63 -72
63 -39 0 -40 -1 -25 -18 25 -27 25 -267 0 -294 -15 -17 -13 -18 60 -18 77 0
90 7 62 30 -11 10 -15 36 -15 110 0 95 1 99 30 130 20 21 37 30 52 28 26 -3
44 -50 74 -193 26 -124 81 -165 219 -165 108 1 184 54 170 120 -8 37 -52 72
-127 100 -81 30 -108 54 -108 96 0 49 29 74 85 74 l44 0 38 -67 38 -68 7 40
c12 69 10 85 -15 94 -37 14 -129 21 -166 11z"/>
<path d="M2165 506 c-43 -18 -93 -79 -101 -121 -14 -74 22 -151 84 -181 80
-38 189 -8 234 64 28 46 29 126 2 172 -40 69 -143 99 -219 66z m95 -42 c90
-77 96 -246 7 -246 -57 -1 -111 61 -123 138 -17 114 43 169 116 108z"/>
<path d="M674 471 c-129 -59 -137 -244 -11 -301 169 -77 334 120 214 257 -55
62 -128 78 -203 44z m87 -34 c87 -57 109 -234 31 -254 -70 -17 -149 88 -140
187 5 53 29 90 58 90 9 0 32 -10 51 -23z"/>
</g>
</svg>
