<svg xmlns="http://www.w3.org/2000/svg" xmlns:xlink="http://www.w3.org/1999/xlink" id="svg" viewBox="17.15 39.11 365.66 150.73"><g id="svgg"><path id="path0" d="M84.483 39.480 C 60.065 41.842,37.271 57.213,25.726 79.102 C 1.577 124.887,31.011 182.485,82.031 189.282 C 95.735 191.108,114.533 188.280,124.137 182.949 L 126.594 181.585 125.355 180.148 C 124.673 179.358,121.631 176.074,118.595 172.852 C 115.560 169.629,109.776 163.447,105.742 159.113 C 98.424 151.251,98.406 151.235,97.156 151.594 C 93.100 152.757,83.744 151.723,77.640 149.437 C 45.797 137.510,43.788 92.964,74.414 77.911 C 104.404 63.170,138.682 92.281,128.843 124.136 L 128.057 126.680 122.520 121.153 L 116.982 115.625 96.968 115.625 C 85.960 115.625,76.953 115.719,76.953 115.833 C 76.953 116.030,125.958 167.206,139.131 180.765 L 145.301 187.116 166.155 187.015 L 187.009 186.914 179.345 179.058 C 175.129 174.737,168.178 167.662,163.898 163.337 L 156.116 155.473 157.187 153.615 C 168.394 134.173,171.045 112.040,164.568 91.992 C 153.395 57.410,120.706 35.975,84.483 39.480 M175.391 93.962 C 175.391 153.383,175.282 150.486,177.755 156.963 C 185.564 177.411,205.477 189.063,232.617 189.063 C 260.396 189.063,279.205 177.352,286.577 155.469 L 287.695 152.148 287.781 118.945 L 287.867 85.742 269.942 67.003 C 260.082 56.696,251.826 48.200,251.594 48.122 C 251.293 48.022,251.172 62.063,251.172 96.993 L 251.172 146.005 250.083 148.100 C 245.162 157.574,219.292 157.528,213.908 148.036 L 212.695 145.898 212.591 92.871 L 212.486 39.844 193.938 39.844 L 175.391 39.844 175.391 93.962 M255.534 40.194 C 255.666 40.550,271.178 56.655,283.508 69.238 L 290.302 76.172 302.963 76.172 L 315.625 76.172 315.625 131.445 L 315.625 186.719 334.570 186.719 L 353.516 186.719 353.516 131.445 L 353.516 76.172 368.164 76.172 L 382.813 76.172 382.813 58.008 L 382.813 39.844 319.108 39.844 C 281.732 39.844,255.457 39.988,255.534 40.194 " stroke="none" fill="#1f1a0e" fill-rule="evenodd"/></g></svg>