<svg xmlns="http://www.w3.org/2000/svg" fill="none" viewBox="0 0 243 46"><path fill="#1f1a0e" d="M152.6 38.998h-1.821l.011-.94h1.81c.623 0 1.143-.13 1.558-.39.416-.264.727-.631.935-1.103.212-.475.317-1.03.317-1.665v-.534c0-.667-.105-1.234-.317-1.702-.212-.471-.519-.829-.923-1.072-.399-.248-.887-.372-1.462-.372h-1.965v-.946h1.965c.763 0 1.432.167 2.007.503a3.44 3.44 0 0 1 1.355 1.42c.323.611.485 1.338.485 2.181v.522c0 .842-.162 1.57-.485 2.18a3.457 3.457 0 0 1-1.373 1.42c-.591.332-1.29.498-2.097.498Zm-1.204-8.724v8.724h-1.157v-8.724h1.157Zm16.114 0v8.724h-1.157v-8.724h1.157Zm16.527 4.38v3.194c-.108.16-.28.34-.515.539-.236.196-.562.367-.977.515-.411.144-.943.216-1.594.216-.707 0-1.336-.164-1.887-.492-.548-.327-.977-.8-1.289-1.42-.311-.619-.467-1.364-.467-2.235v-.677c0-.867.136-1.608.407-2.223.272-.619.669-1.092 1.193-1.42.523-.331 1.16-.497 1.911-.497.667 0 1.225.116 1.672.347.451.228.803.543 1.055.947.255.404.419.863.491 1.378h-1.156a2.424 2.424 0 0 0-.312-.863 1.67 1.67 0 0 0-.653-.623c-.284-.16-.649-.24-1.097-.24-.539 0-.982.13-1.33.39-.344.256-.599.621-.767 1.097-.168.475-.252 1.04-.252 1.695v.69c0 .67.104 1.246.312 1.725.208.475.497.841.869 1.097.375.255.811.383 1.306.383.412 0 .745-.034 1.001-.102a2.18 2.18 0 0 0 .599-.251c.144-.1.254-.194.33-.282v-1.953h-2.02v-.935h3.17Zm11.135-4.38v8.724h-1.157v-8.724h1.157Zm13.123 0v8.724h-1.138v-8.724h1.138Zm2.805 0v.946h-6.741v-.946h6.741Zm12.021.773-2.888 7.951h-1.181l3.326-8.724h.761l-.018.773Zm2.421 7.951-2.894-7.951-.018-.773h.761l3.337 8.724h-1.186Zm-.15-3.23v.947h-4.901v-.947h4.901Zm15.772 2.29v.94h-4.362v-.94h4.362Zm-4.134-7.784v8.724h-1.157v-8.724h1.157Z"/><g clip-path="url(#a)"><path fill="#1f1a0e" fill-rule="evenodd" d="M173.173 4.433h7.225v18.235h4.316V4.433h7.224V.093h-18.765v4.34Zm62.755 9.88a7.022 7.022 0 0 0 2.891-2.647 6.97 6.97 0 0 0 1.013-3.773c0-3.86-2.845-6.999-6.342-6.999h-12.673v22.177h4.316v-8.213h5.91l5.711 8.213h5.25l-6.076-8.759Zm-.412-6.42c0 1.448-.909 2.625-2.026 2.625h-8.357V5.235h8.357c1.117 0 2.026 1.193 2.026 2.658ZM164.398.289h-5.096l-9.884 22.18h4.728l2.735-6.133h9.939l2.734 6.134h4.727l-9.803-22-.08-.18Zm.499 11.739h-6.095l3.048-6.839 3.047 6.839ZM67.007.29h-5.094l-9.882 22.18h4.728l2.734-6.134h9.939l2.734 6.134h4.728l-9.806-22-.08-.18Zm.503 11.738h-6.094l3.047-6.838 3.047 6.838Zm74.783 1.431a4.802 4.802 0 0 1-1.4 3.409 4.865 4.865 0 0 1-3.414 1.43h-3.117a4.88 4.88 0 0 1-3.431-1.423 4.82 4.82 0 0 1-1.418-3.416V.157h-4.316v13.302a9.108 9.108 0 0 0 2.679 6.456 9.227 9.227 0 0 0 6.486 2.69h3.117a9.225 9.225 0 0 0 6.485-2.69 9.109 9.109 0 0 0 2.679-6.456V.157h-4.35v13.302Zm-39.041-9.125h7.225v18.434h4.314V4.333h7.225v-4.34h-18.764v4.34Zm-6.497 12.47A7.949 7.949 0 0 1 92 18.382l-.739.024v.029h-.975l-.44-.02a7.43 7.43 0 0 1-5.198-2.05 7.592 7.592 0 0 1-1.867-4.985c0-1.83.662-3.599 1.867-4.984a7.436 7.436 0 0 1 5.198-2.05l.392-.017h1.314l.442.017c1.472.02 2.91.453 4.146 1.248l1.81 1.188 2.39-3.582-1.81-1.19A11.878 11.878 0 0 0 92.043.038l-.177-.006v-.01h-1.603l-.475.016a11.76 11.76 0 0 0-8.215 3.312 11.286 11.286 0 0 0-3.109 8.011 11.136 11.136 0 0 0 .75 4.31 11.193 11.193 0 0 0 2.354 3.697 11.656 11.656 0 0 0 8.22 3.351l.484.018h1.3l.477-.018a12.304 12.304 0 0 0 7.4-2.577l1.719-1.352-2.762-3.38-1.65 1.395ZM205.811.04h-.68a11.762 11.762 0 0 0-8.216 3.313 11.287 11.287 0 0 0-3.108 8.01 11.123 11.123 0 0 0 .75 4.311 11.191 11.191 0 0 0 2.353 3.697 11.664 11.664 0 0 0 8.232 3.35h.681a11.646 11.646 0 0 0 8.216-3.347 11.153 11.153 0 0 0 3.108-8.01 11.287 11.287 0 0 0-3.109-8.011 11.77 11.77 0 0 0-8.23-3.313h.003Zm7.017 11.326a6.962 6.962 0 0 1-1.866 5 7.42 7.42 0 0 1-5.185 2.052h-.59a7.429 7.429 0 0 1-5.198-2.051 7.591 7.591 0 0 1-1.868-4.984c0-1.83.663-3.6 1.868-4.984a7.417 7.417 0 0 1 5.185-2.05h.59a7.434 7.434 0 0 1 5.198 2.05 6.92 6.92 0 0 1 1.863 4.966h.003Z" clip-rule="evenodd"/></g><path fill="url(#b)" d="M40.25 33.87h102.592v.982H40.25z"/><path fill="#1f1a0e" d="M11.344 38.631h22.13l11.065-19.165-33.195 19.165Z"/><path fill="#1f1a0e" d="m33.451 38.584 10.964-18.989-32.89 18.989h21.926Zm.055.095H11.172l33.501-19.34-11.167 19.34ZM11.351.042l33.196 19.165L33.482.042h-22.13ZM.062 19.339l11.066 19.163V.17L.062 19.339Z"/><path fill="#1f1a0e" d="M11.073 38.325V.348L.109 19.339l10.964 18.986ZM44.41 19.081 33.447.089H11.52l32.89 18.989m-33.243 19.6L0 19.34 11.168 0h22.334l11.167 19.34L11.167 0v38.679Z"/><defs><linearGradient id="b" x1="141.698" x2="41.752" y1="34.852" y2="34.852" gradientUnits="userSpaceOnUse"><stop stop-color="#1f1a0e"/><stop offset="1" stop-color="#1f1a0e" stop-opacity="0"/></linearGradient><clipPath id="a"><path fill="#1f1a0e" d="M52.031 0H242v23.071H52.031z"/></clipPath></defs></svg>