<svg id="svg" xmlns="http://www.w3.org/2000/svg" xmlns:xlink="http://www.w3.org/1999/xlink" width="113" height="30" viewBox="0, 0, 400,103.4965034965035"><g id="svgg"><path id="path0" d="M323.368 1.157 C 310.027 4.650,298.825 14.301,294.165 26.317 C 292.946 29.461,292.727 29.686,289.539 31.069 C 256.786 45.273,262.231 95.223,297.343 102.649 C 303.073 103.861,364.284 103.868,370.070 102.658 C 404.711 95.410,410.582 46.876,378.686 31.429 C 374.569 29.435,374.397 29.271,373.202 26.194 C 365.804 7.151,343.423 -4.093,323.368 1.157 M339.301 12.602 C 350.062 13.923,361.294 24.948,363.619 36.471 L 364.261 39.655 367.166 40.258 C 386.577 44.293,394.231 67.923,380.990 82.937 C 378.283 86.006,377.622 86.215,377.622 84.003 C 377.622 77.899,371.951 68.990,365.425 64.841 C 360.034 61.414,349.118 59.808,344.554 61.770 C 343.815 62.088,343.530 61.526,342.962 58.641 C 339.648 41.798,323.846 27.539,308.365 27.422 C 307.083 27.413,307.085 27.405,308.761 24.968 C 314.166 17.112,326.237 11.141,334.825 12.076 C 335.748 12.176,337.762 12.413,339.301 12.602 M17.483 19.326 C 7.093 22.124,0.747 30.063,1.234 39.656 C 1.748 49.809,6.210 53.748,21.631 57.663 C 32.749 60.486,35.245 62.048,35.245 66.181 C 35.245 74.557,19.667 76.444,11.740 69.029 C 8.628 66.118,7.098 65.486,4.556 66.059 C -1.682 67.466,-1.550 74.418,4.810 79.491 C 20.593 92.080,46.165 84.639,47.425 67.091 C 48.200 56.288,42.858 50.931,27.413 47.026 C 13.796 43.583,10.939 41.026,14.319 35.305 C 18.154 28.813,27.172 29.009,34.858 35.751 C 39.042 39.421,41.562 39.668,44.531 36.699 C 52.703 28.528,32.205 15.362,17.483 19.326 M150.706 19.406 C 147.362 20.063,146.309 22.476,146.096 29.966 L 145.899 36.923 140.894 36.923 C 132.184 36.923,133.061 35.675,122.304 63.389 L 121.043 66.639 116.961 56.396 C 109.787 38.391,108.871 36.923,104.813 36.923 C 100.143 36.923,98.926 38.940,93.924 54.965 C 91.170 63.789,91.108 63.852,89.808 59.161 C 86.269 46.390,83.187 38.832,81.071 37.738 C 74.975 34.585,72.510 37.932,66.840 57.063 C 64.827 63.856,64.693 63.966,63.521 59.788 C 57.664 38.915,54.423 34.273,48.309 38.001 C 44.179 40.519,44.160 40.407,52.880 64.895 C 59.590 83.742,59.850 84.295,62.497 85.400 C 67.820 87.625,70.612 83.606,76.423 65.348 L 77.971 60.487 80.327 67.586 C 86.147 85.118,87.542 87.070,93.144 85.524 C 95.827 84.783,96.170 84.138,100.732 71.275 C 102.958 64.997,104.949 59.860,105.156 59.860 C 105.362 59.860,107.675 64.608,110.294 70.410 L 115.057 80.960 112.768 85.514 C 110.863 89.303,109.994 90.393,107.596 92.008 C 99.377 97.544,105.273 106.584,114.164 102.079 C 120.451 98.893,120.504 98.802,132.246 71.049 L 141.359 49.510 143.687 49.338 L 146.014 49.166 146.018 59.968 C 146.026 78.794,148.506 85.594,155.363 85.594 C 160.471 85.594,162.871 80.219,159.858 75.524 C 158.674 73.679,158.591 72.884,158.422 61.678 L 158.242 49.790 161.387 49.790 C 171.858 49.790,172.288 38.450,161.848 37.612 L 158.322 37.329 158.322 30.258 C 158.322 22.063,156.352 18.396,152.326 19.097 C 152.085 19.139,151.356 19.278,150.706 19.406 M215.567 19.417 C 213.820 19.748,211.662 22.109,211.257 24.134 C 210.473 28.053,210.872 80.507,211.701 82.490 C 213.251 86.199,218.199 86.953,221.214 83.940 L 222.937 82.219 223.217 68.942 C 223.478 56.533,223.576 55.536,224.717 53.706 C 227.669 48.968,233.892 48.106,238.309 51.823 C 241.299 54.339,241.379 54.743,241.678 68.811 C 242.010 84.419,242.576 85.918,248.073 85.762 C 253.521 85.607,254.123 83.694,253.870 67.328 C 253.626 51.565,253.173 49.759,248.082 44.261 C 242.344 38.063,231.266 35.485,225.364 38.973 L 223.315 40.184 223.123 31.700 C 222.879 20.960,221.267 18.339,215.567 19.417 M183.621 37.791 C 171.684 41.005,163.658 55.236,166.915 67.413 C 171.681 85.225,193.068 91.899,205.734 79.527 C 212.192 73.218,204.911 65.353,197.557 70.694 C 192.377 74.457,187.674 74.703,183.397 71.434 C 171.005 61.960,184.040 42.389,196.658 51.526 C 201.094 54.738,204.671 54.730,206.969 51.502 C 212.510 43.720,196.507 34.323,183.621 37.791 M315.781 41.865 C 341.255 53.786,333.659 90.909,305.746 90.909 C 275.485 90.909,269.662 48.996,298.741 40.487 C 303.323 39.146,311.361 39.797,315.781 41.865 M298.292 50.942 C 288.704 55.733,286.206 68.345,293.257 76.356 C 301.159 85.333,316.991 82.368,320.797 71.198 C 325.582 57.154,311.402 44.391,298.292 50.942 M309.466 58.520 C 316.717 62.224,313.693 73.566,305.455 73.566 C 298.685 73.566,294.919 65.772,299.149 60.518 C 301.823 57.198,305.487 56.488,309.466 58.520 " stroke="none" fill="#1f1a0e" fill-rule="evenodd"></path></g></svg>